<svg xmlns="http://www.w3.org/2000/svg" width="24" height="24" viewBox="0 0 16 16"><path fill="#E1E5EC" d="M0 4a4 4 0 0 1 4-4h8a4 4 0 0 1 4 4v8a4 4 0 0 1-4 4H4a4 4 0 0 1-4-4z"/><path fill="#D12228" d="M4.22 7.78S5.3 7.6 5.3 6.93C5.3 6.27 4.15 6 2.92 6c-1.1 0-1.84.14-1.84.14v.6c.5-.13.99-.23 1.64-.23.7 0 1.24.2 1.24.5 0 .36-.53.57-1.67.57h-.53v.54h.5c1.2 0 1.88.18 1.88.62 0 .4-.61.63-1.37.63-.67 0-1.28-.14-1.77-.27v.64c.24.04.87.17 2.04.17 1.3 0 2.42-.42 2.42-1.15 0-.62-.78-.98-1.24-.98"/><path fill="#332D2B" d="M11.17 9.13c.35.14 1.09.25 1.67.25.63 0 .9-.21.9-.48 0-.25-.25-.4-.95-.65-.93-.34-1.62-.61-1.62-1.23 0-.63.83-1 2.08-1 .68 0 .9.04 1.34.12v.6c-.42-.08-.8-.22-1.37-.22-.62 0-.89.2-.89.4 0 .3.4.44 1.12.7 1 .35 1.55.62 1.55 1.22 0 .62-.7 1.06-2.25 1.06-.65 0-1.09-.04-1.58-.12zM7.85 6.55H7.1v2.81h.75c1.14 0 1.86-.49 1.86-1.4s-.72-1.41-1.86-1.41m2 3.07a4.7 4.7 0 0 1-1.68.28H5.85V6.02h2.32c.6 0 1.3.11 1.67.28.9.4 1.19 1.05 1.19 1.66s-.3 1.26-1.19 1.66Z"/></svg>