<svg xmlns="http://www.w3.org/2000/svg" width="24" height="24" viewBox="0 0 16 16"><path fill="#E41B23" d="M0 4a4 4 0 0 1 4-4h8a4 4 0 0 1 4 4v8a4 4 0 0 1-4 4H4a4 4 0 0 1-4-4z"/><path fill="#FFF" fill-rule="evenodd" d="M12.77 8.45a4.3 4.3 0 0 1-2.7-2.34 6.2 6.2 0 0 1-.47-1.8c-.1-.78-.13-1.57-.13-2.36h-.64v1.27c0 .76.02 1.5.1 2.25a3.98 3.98 0 0 0 1.54 3.04 5.2 5.2 0 0 0 2.8 1.21V8.56a3.5 3.5 0 0 1-.5-.1Zm-5.4-.58V1.95h1.2v7.78h-1.2zm.82 2.47a.5.5 0 0 0-.5.16c-.05.06-.07.13-.09.2l-.02.08-.44 1.35-.56 1.75h.61l.29-.9h1.18l.29.9h.6l-.5-1.62-.53-1.62a.46.46 0 0 0-.33-.3m-.55 2.14.43-1.35.43 1.35zm-4.24-2a.5.5 0 0 1 .65-.06c.08.06.14.14.16.23l1.04 3.24h-.61l-.29-.9H3.17l-.29.9h-.6a776 776 0 0 1 1-3.18.5.5 0 0 1 .12-.23m.36.66-.43 1.34h.87zM7 10.87v-.54H4.8v.54h.8v3.01h.6v-3H7Zm4.58 1.45-.15.09c-.06.04-.07.12-.03.18l.61.84.34.45h-.7l-.54-.75-.36-.49a.42.42 0 0 1-.06-.4c.04-.1.14-.18.25-.22a1 1 0 0 0 .53-.37c.09-.13.08-.3.05-.45a.48.48 0 0 0-.47-.33h-.46a.13.13 0 0 0-.13.11v2.9h-.59v-3.12c0-.18.14-.35.33-.4a.6.6 0 0 1 .18-.03h.7c.4.01.76.23.93.55.12.2.12.44.1.68a.9.9 0 0 1-.33.63c-.06.05-.13.1-.2.13m1.07-1.99v3.56h.62v-3.56zm1.07 3.15c.13-.04.28.06.28.2 0 .11-.12.22-.25.2-.12 0-.21-.1-.2-.2 0-.1.07-.18.17-.2m-.11.13c-.06.1.03.24.15.24.13 0 .21-.12.19-.22-.03-.09-.14-.14-.24-.1a.17.17 0 0 0-.1.08m.13-.04c.03 0 .07 0 .1.02.05.04.02.1-.03.1l.08.1c-.05.01-.07-.02-.09-.05l-.02-.03a.2.2 0 0 0-.05-.02h-.01v.1h-.05v-.22zm-.03.03v.07h.03c.04 0 .08 0 .08-.04a.053.053 0 0 0-.07-.02h-.04ZM6.52 7.25A4.9 4.9 0 0 1 3.67 9.5c-.33.1-.67.18-1 .22V8.56A4.22 4.22 0 0 0 5.83 6.2c.23-.48.36-1.01.45-1.54.11-.67.16-1.35.18-2.02v-.69h.65v1.39c0 .38-.01.77-.03 1.15a14 14 0 0 1-.17 1.67 4 4 0 0 1-.4 1.09Z" clip-rule="evenodd"/></svg>