<svg xmlns="http://www.w3.org/2000/svg" width="24" height="24" viewBox="0 0 16 16"><path fill="#983635" d="M0 4a4 4 0 0 1 4-4h8a4 4 0 0 1 4 4v8a4 4 0 0 1-4 4H4a4 4 0 0 1-4-4z"/><path fill="#FFF" d="M5.76 8.65h-2.6V7.28h5.1L4.7 13.5H2.92zm4.41 2.97a.82.82 0 0 0 .21.54c.07.07.15.12.24.17a.77.77 0 0 0 .57 0c.1-.05.18-.1.24-.17a.8.8 0 0 0 .17-.24.7.7 0 0 0 .06-.3.7.7 0 0 0-.23-.52.7.7 0 0 0-.52-.22.7.7 0 0 0-.53.22.7.7 0 0 0-.21.52m.06-2.76c0 .2.06.36.2.5.13.13.29.2.48.2.1 0 .2-.02.27-.06a.8.8 0 0 0 .22-.15c.06-.07.1-.14.14-.22a.65.65 0 0 0-.14-.73.65.65 0 0 0-.49-.21.62.62 0 0 0-.48.2c-.14.13-.2.29-.2.47m-.46 1.36c-.65-.27-.98-.73-.98-1.37a1.68 1.68 0 0 1 .59-1.26c.19-.16.4-.28.67-.36.26-.08.55-.12.86-.12.32 0 .6.04.86.12s.49.2.67.35c.19.16.33.34.44.56a1.84 1.84 0 0 1 .1 1.16c-.03.12-.09.24-.17.35-.08.1-.18.2-.31.3q-.195.135-.48.27c.85.33 1.27.86 1.27 1.6 0 .26-.06.5-.18.73s-.28.42-.5.59c-.2.16-.46.3-.75.38-.28.1-.6.14-.95.14-.33 0-.65-.04-.94-.14a2.4 2.4 0 0 1-.75-.37 1.8 1.8 0 0 1-.5-.6 1.55 1.55 0 0 1-.18-.73c0-.76.4-1.29 1.23-1.6"/><path fill="#FFF" fill-rule="evenodd" d="M7.7 2.5a.5.5 0 0 1 .49-.16c.16.03.29.16.33.3l.52 1.62.52 1.62h-.61l-.29-.9H7.48l-.29.9h-.6a604 604 0 0 0 .99-3.1l.02-.08c.02-.07.04-.14.1-.2m.37.63-.43 1.35h.86zm-4.02-.71a.5.5 0 0 0-.65.06.5.5 0 0 0-.11.23l-.03.08a776 776 0 0 0-.99 3.1h.61l.29-.9h1.18l.29.9h.61L4.21 2.65a.44.44 0 0 0-.16-.23m-.72 2.06.43-1.34.43 1.34zM7 2.33v.54h-.8v3.01h-.6v-3h-.8v-.55zm4.43 2.08.15-.09.2-.13a.9.9 0 0 0 .33-.63c.02-.24.02-.47-.1-.68a1.1 1.1 0 0 0-.93-.55h-.7a.6.6 0 0 0-.18.02c-.19.06-.33.23-.33.41V5.9h.6V3c0-.07.05-.12.12-.12h.46c.21-.01.42.14.47.33.03.15.04.32-.05.45a1 1 0 0 1-.53.37c-.1.04-.2.11-.25.22a.42.42 0 0 0 .06.4l.36.5.54.74h.7L12 5.43l-.6-.84c-.05-.06-.04-.14.02-.18Zm1.22 1.48V2.33h.62V5.9h-.62ZM14 5.67c0-.13-.15-.23-.28-.2-.1.03-.17.11-.17.2-.01.1.08.2.2.21.13.02.26-.09.25-.2Zm-.24.18c-.12 0-.21-.14-.15-.24a.17.17 0 0 1 .1-.09c.1-.03.21.02.24.11.02.1-.06.23-.19.22m.08-.26c-.03-.02-.07-.02-.1-.02h-.07v.22h.04v-.1h.02l.05.02.02.03c.02.03.04.06.09.05a.5.5 0 0 0-.08-.1c.05 0 .08-.06.03-.1m-.13.08V5.6h.04c.02 0 .05 0 .06.03 0 .04-.03.04-.07.04z" clip-rule="evenodd"/></svg>