<svg xmlns="http://www.w3.org/2000/svg" width="24" height="24" viewBox="0 0 16 16"><path fill="#E1E5EC" d="M0 4a4 4 0 0 1 4-4h8a4 4 0 0 1 4 4v8a4 4 0 0 1-4 4H4a4 4 0 0 1-4-4z"/><path fill="#ED8432" d="M9.7 3.14c.4.06.82.2 1.04.27.44.14 1.15.57 1.4.77.12.1.37.35.47.48l.39.56c.18.28.4.68.58 1.06.2.42.22.54.28.9l.13.6c.02.12.03.5-.2.56a.49.49 0 0 1-.53-.2c-.13-.22-.11-.52-.27-.87-.12-.28-.17-.7-.36-.99l-.15-.26c-.26-.42-.54-.75-.7-.96a3.5 3.5 0 0 0-.68-.6 4.5 4.5 0 0 0-1.6-.59c-.31-.03-.52-.08-.82-.1-.38-.03-.56-.07-1.04 0-.18.04-.47.06-.74.17a6.4 6.4 0 0 0-1.88 1.23c-.32.35-.47.53-.69.97-.1.22-.28.55-.36.78-.05.24-.14.7-.13.9.01.4-.02.48 0 .8 0 .28.1.48.14.71.03.16.18.72.27.85.43.94 1 1.35 1.63 1.64.18.1.75.25.9.3.28.04.65.08 1 .08.37.01.88-.04 1.18-.16.34-.12.72-.3.72-.3.15-.08.4-.23.46-.29.15-.1.23-.13.32-.22.12-.1.2-.17.28-.3l.22-.3c.08-.14.13-.3.21-.48.1-.28.09-.27.1-.56.03-.08 0-.37 0-.42-.05-.26-.04-.5-.1-.75-.08-.35-.14-.6-.24-.94-.1-.38-.38-.72-.6-.97a3.1 3.1 0 0 0-1.09-.74 5 5 0 0 0-.58-.15c-.35-.04-.4-.01-.74.01l-.49.11c-.29.1-.4.17-.69.36-.13.08-.24.14-.38.28-.11.1-.19.28-.28.4-.13.16-.26.4-.36.65-.1.24-.13.6-.11.82 0 .17.04.48.06.55l.07.33.14.3c.06.13.17.32.37.52.14.16.42.32.63.38.2.1.51.12.69.12l.42-.04c.23-.06.27-.06.52-.17.21-.1.36-.14.5-.25 0 0 .22-.17.3-.3.06-.06.14-.36.13-.55 0-.26.03-.4-.02-.62a2.3 2.3 0 0 0-.24-.61c-.1-.15-.3-.3-.54-.42a2.4 2.4 0 0 0-.58-.15.7.7 0 0 0-.59.22c-.11.13-.33.4-.24.68.08.26.17.53.54.5.26.06.55-.02.65.03.14.08.2.27.15.4-.04.25-.27.28-.53.3-.22.04-.79-.07-.91-.17-.09-.05-.22-.17-.3-.26-.07-.06-.15-.19-.2-.29a.8.8 0 0 1-.1-.28c-.02-.09-.06-.26-.05-.43.01-.12.04-.17.07-.34.06-.2.14-.34.26-.51.16-.17.36-.36.55-.45.18-.1.48-.13.75-.11.22.02.49.05.66.1.3.11.38.14.62.3.21.12.42.36.53.56.25.52.39 1.1.29 1.87-.01.13-.05.25-.13.43-.07.16-.2.35-.4.5-.07.07-.2.16-.3.21-.14.1-.23.14-.38.21-.13.07-.28.14-.48.2-.21.08-.38.08-.64.13-.27.06-1 .01-1.42-.18a2.7 2.7 0 0 1-.88-.62c-.14-.15-.27-.42-.31-.48-.2-.4-.24-.76-.28-.84-.04-.1-.06-.34-.09-.5-.03-.19-.01-.95.17-1.44.1-.2.16-.37.22-.46.13-.18.19-.29.3-.41.15-.2.26-.36.42-.47.39-.33.71-.5 1.15-.71.55-.23.72-.19 1.23-.18.24 0 .58.08.74.11.31.04.5.12.7.18.23.06.36.17.54.28.15.1.33.24.45.35.3.23.44.46.63.76a5.4 5.4 0 0 1 .38 1.03l.11.53c.04.21.11.6.14.96.05.32-.03.96-.08 1.15a3.3 3.3 0 0 1-1.17 1.74c-.15.13-.28.2-.5.34-.31.19-.55.3-.98.48-.18.06-.4.13-.64.19-.46.04-.94.08-1.46.02a8 8 0 0 1-1.34-.31c-.17-.07-.5-.2-.64-.28a4.7 4.7 0 0 1-1.4-1.3c-.07-.13-.3-.51-.36-.68-.13-.29-.23-.63-.28-.78-.06-.34-.16-.56-.2-.9 0-.09-.01-.28-.03-.38.03-.24 0-.46.04-.72.04-.22.09-.3.1-.5l.15-.45c.08-.18.1-.34.21-.54.16-.32.33-.7.59-1.02.07-.1.28-.34.35-.42.17-.17.26-.2.45-.37.02-.01.15-.16.28-.21.22-.17.4-.24.61-.4.42-.2.57-.28.98-.45.24-.09.57-.14.69-.18.23-.02.46-.1.7-.08.26 0 .54.02.8.04.19.02.42.02.75.1"/></svg>