<svg xmlns="http://www.w3.org/2000/svg" width="24" height="24" viewBox="0 0 16 16"><path fill="#574181" d="M0 4a4 4 0 0 1 4-4h8a4 4 0 0 1 4 4v8a4 4 0 0 1-4 4H4a4 4 0 0 1-4-4z"/><path stroke="#000" stroke-linejoin="round" stroke-opacity=".28" stroke-width=".5" d="M5.594 9.313c0 .09.048.172.126.217l1.968 1.125A.25.25 0 0 0 8 10.603a.25.25 0 0 0 .312.052L10.28 9.53a.25.25 0 0 0 .126-.217v-.546l.344-.203v1.073L8.062 11.19a.3.3 0 0 0-.062.05.3.3 0 0 0-.062-.05L5.25 9.637V6.531a.3.3 0 0 0-.01-.068.3.3 0 0 0 .073-.028l2.686-1.552 2.218 1.301a.25.25 0 0 0 .252.001l1.406-.812a.25.25 0 0 0 0-.433l-3.75-2.157a.25.25 0 0 0-.25 0L3.688 5.19a.25.25 0 0 0-.106.315.25.25 0 0 0-.207.246v4.844c0 .09.048.172.125.216l4.188 2.407A.25.25 0 0 0 8 13.165a.25.25 0 0 0 .313.051l4.188-2.437a.25.25 0 0 0 .124-.216V5.75a.25.25 0 0 0-.376-.216l-2.032 1.183a.25.25 0 0 0-.124-.246L8.124 5.344a.25.25 0 0 0-.248 0L5.907 6.47a.25.25 0 0 0-.091.344.25.25 0 0 0-.222.248z"/><path fill="#FFF" d="m5.844 9.313 1.968 1.124v-2.25L5.845 7.063zM5 9.78l2.813 1.625V13l-4.188-2.406V5.75L5 6.531zm3-4.219L6.031 6.688 8 7.813l1.969-1.125L8 5.563zm0-.968 2.344 1.375 1.406-.813L8 3 3.812 5.406l1.376.813L8 4.594zm3 5.187V8.125l-.844.5v.688l-1.969 1.124v-2.25l4.188-2.437v4.813L8.187 13v-1.594L11 9.781z"/></svg>