<svg xmlns="http://www.w3.org/2000/svg" width="24" height="24" viewBox="0 0 16 16"><path fill="#FFC557" d="M0 4a4 4 0 0 1 4-4h8a4 4 0 0 1 4 4v8a4 4 0 0 1-4 4H4a4 4 0 0 1-4-4z"/><path fill="#40CFBE" stroke="#FFF" stroke-width=".25" d="M4.5 1.875a.625.625 0 0 0-.625.625v11c0 .345.28.625.625.625h6c.898 0 1.625-.727 1.625-1.625v-10a.625.625 0 0 0-.625-.625z"/><path fill="#181C25" fill-rule="evenodd" d="M5.9 12a.1.1 0 0 1 .1.1v.8a.1.1 0 0 0 .1.1h.8a.1.1 0 0 0 .1-.1v-.8a.1.1 0 0 1 .1-.1h.8a.1.1 0 0 0 .1-.1v-.8a.1.1 0 0 0-.1-.1h-.8a.1.1 0 0 1-.1-.1v-.8a.1.1 0 0 0-.1-.1h-.8a.1.1 0 0 0-.1.1v.8a.1.1 0 0 1-.1.1h-.8a.1.1 0 0 0-.1.1v.8a.1.1 0 0 0 .1.1z" clip-rule="evenodd"/><path fill="#FFF" fill-opacity=".3" d="M6.125 12.9v-.8h-.25v.8zm.775-.025h-.8v.25h.8zm-.025-.775v.8h.25v-.8zm1.025-.225h-.8v.25h.8zm-.025-.775v.8h.25v-.8zm-.775.025h.8v-.25h-.8zM6.875 10.1v.8h.25v-.8zm-.775.025h.8v-.25h-.8zm.025.775v-.8h-.25v.8zm-1.025.225h.8v-.25h-.8zm.025.775v-.8h-.25v.8zm.775-.025h-.8v.25h.8zm-1.025.025c0 .124.1.225.225.225v-.25c.014 0 .025.011.025.025zm.225-1.025c-.124 0-.225.1-.225.225h.25a.025.025 0 0 1-.025.025zm.775.025c0-.014.011-.025.025-.025v.25c.124 0 .225-.1.225-.225zM6.1 9.875c-.124 0-.225.1-.225.225h.25a.025.025 0 0 1-.025.025zm1.025.225c0-.124-.1-.225-.225-.225v.25a.025.025 0 0 1-.025-.025zm-.025.775c.014 0 .025.011.025.025h-.25c0 .124.1.225.225.225zm1.025.225c0-.124-.1-.225-.225-.225v.25a.025.025 0 0 1-.025-.025zM7.9 12.125c.124 0 .225-.1.225-.225h-.25c0-.014.011-.025.025-.025zm-.775-.025a.025.025 0 0 1-.025.025v-.25c-.124 0-.225.1-.225.225zM6.9 13.125c.124 0 .225-.1.225-.225h-.25c0-.014.011-.025.025-.025zM6.125 12.1c0-.124-.1-.225-.225-.225v.25a.025.025 0 0 1-.025-.025zm-.25.8c0 .124.1.225.225.225v-.25c.014 0 .025.011.025.025z"/><circle cx="9.5" cy="11.5" r=".5" fill="#1E1E1E"/><circle cx="9.5" cy="11.5" r=".625" fill="none" stroke="#FFF" stroke-opacity=".3" stroke-width=".25"/><circle cx="10.5" cy="10.5" r=".5" fill="#1E1E1E"/><circle cx="10.5" cy="10.5" r=".625" fill="none" stroke="#FFF" stroke-opacity=".3" stroke-width=".25"/><path fill="#312933" d="M5 3.25A.25.25 0 0 1 5.25 3h5.5a.25.25 0 0 1 .25.25v5.5a.25.25 0 0 1-.25.25h-5.5A.25.25 0 0 1 5 8.75z"/><path fill="#D3CECA" d="M6 4.25A.25.25 0 0 1 6.25 4h3.5a.25.25 0 0 1 .25.25v3.5a.25.25 0 0 1-.25.25h-3.5A.25.25 0 0 1 6 7.75z"/><path fill="none" stroke="#1B1C1D" stroke-opacity=".2" stroke-width=".25" d="M6.25 3.875a.375.375 0 0 0-.375.375v3.5c0 .207.168.375.375.375h3.5a.375.375 0 0 0 .375-.375v-3.5a.375.375 0 0 0-.375-.375z"/><path fill="none" stroke="#FFF" stroke-linecap="round" stroke-width=".5" d="M8.621 4.854 6.854 6.621"/><path fill="none" stroke="#FFF" stroke-linecap="round" stroke-width=".354" d="m7.621 4.75-.457.457"/></svg>