<svg xmlns="http://www.w3.org/2000/svg" width="24" height="24" viewBox="0 0 16 16"><path fill="#1B1C1D" d="M0 4a4 4 0 0 1 4-4h8a4 4 0 0 1 4 4v8a4 4 0 0 1-4 4H4a4 4 0 0 1-4-4z"/><path fill="red" d="M2.369 7.263C3.537 5.78 4.945 4.986 5.514 5.484c.568.5.081 2.108-1.09 3.589-1.168 1.482-2.576 2.277-3.143 1.778-.57-.5-.081-2.108 1.088-3.589z"/><path fill="#0C9" d="M7.014 7.267c1.2-1.472 2.646-2.263 3.23-1.766.584.498.083 2.094-1.118 3.566-1.2 1.473-2.646 2.264-3.23 1.767-.582-.497-.083-2.094 1.118-3.567"/><path fill="#09F" d="M11.526 7.267c1.2-1.472 2.648-2.263 3.23-1.766.584.498.083 2.094-1.117 3.566-1.2 1.473-2.647 2.264-3.23 1.767s-.082-2.094 1.117-3.567"/></svg>