<svg xmlns="http://www.w3.org/2000/svg" width="24" height="24" fill="none" viewBox="0 0 16 16"><rect width="16" height="16" fill="url(&quot;#a&quot;)" rx="4"/><path fill="#FFF" fill-rule="evenodd" d="M2 3a1 1 0 0 0-1 1v8a1 1 0 0 0 1 1h12a1 1 0 0 0 1-1V4a1 1 0 0 0-1-1zm2.876 7.528a.67.67 0 0 0 .671-.67V6.094c0-.37-.3-.67-.67-.67H2.67a.67.67 0 0 0-.671.67V8.3c0 .37.3.67.67.67h1.493v-.864h-1.04a.26.26 0 0 1-.257-.259V6.548c0-.143.114-.258.257-.258h1.303c.143 0 .257.115.257.258v2.857a.26.26 0 0 1-.257.259H2v.864zm9.149-.67a.67.67 0 0 1-.67.67h-2.877v-.864h2.425a.26.26 0 0 0 .258-.259V6.548a.26.26 0 0 0-.258-.258H11.6a.26.26 0 0 0-.257.258v1.3c0 .143.116.259.257.259h1.04v.864h-1.49a.67.67 0 0 1-.671-.67V6.095c0-.37.3-.67.67-.67h2.206c.37 0 .67.3.67.67v3.762ZM8.919 7.845V6.547a.255.255 0 0 0-.255-.257H7.362a.257.257 0 0 0-.258.257v1.301c0 .143.115.259.258.259h1.302a.256.256 0 0 0 .255-.259zM6.91 5.425h2.207c.37 0 .67.3.67.67v2.206c0 .37-.3.67-.67.67H6.909a.67.67 0 0 1-.67-.67V6.095c0-.37.3-.67.67-.67Z" clip-rule="evenodd"/><defs><linearGradient id="a" x1="8" x2="8" y1="16" y2="0" gradientUnits="userSpaceOnUse"><stop stop-color="#7B00D6"/><stop offset="1" stop-color="#DD09EA"/></linearGradient></defs></svg>