<svg xmlns="http://www.w3.org/2000/svg" width="24" height="24" fill="none" viewBox="0 0 16 16"><rect width="16" height="16" fill="#E1E5EC" rx="4"/><path fill="#F7CF56" d="M7.837 5.295c0 .035-.038.035-.038.035h-.037c-.038 0-.038-.035-.075-.07 0 0-.038-.035-.038-.07s0-.036.038-.036l.075.035c.037.036.075.07.075.106m-.677-.352c0-.177-.075-.283-.188-.283 0 0 0 .036-.037.036v.07h.112c0 .07.038.106.038.177zm1.316-.177c.075 0 .113.07.15.177h.076c-.038-.036-.038-.071-.038-.106s0-.07-.038-.106c-.037-.035-.075-.07-.112-.07 0 0-.038.035-.076.035 0 .035.038.035.038.07m-1.128.564c-.037 0-.037 0-.037-.035s0-.07.037-.106c.075 0 .113-.035.113-.035.038 0 .038.035.038.035 0 .036-.038.07-.113.141zm-.413-.035c-.15-.07-.188-.176-.188-.352 0-.106 0-.177.075-.247a.21.21 0 0 1 .188-.106c.075 0 .113.035.188.106.037.106.075.211.075.317v.07h.038v-.035c.037 0 .037-.07.037-.211 0-.106 0-.212-.075-.318-.075-.105-.15-.176-.3-.176a.28.28 0 0 0-.264.176c-.075.141-.09.247-.09.424 0 .14.053.282.203.423.038-.036.075-.036.113-.07Zm4.699 4.971c.037 0 .037-.014.037-.046 0-.077-.037-.169-.15-.271-.113-.106-.3-.173-.526-.201-.038-.004-.075-.004-.075-.004-.038-.007-.038-.007-.075-.007a2 2 0 0 1-.15-.017c.112-.328.15-.617.15-.871 0-.353-.076-.6-.226-.811s-.3-.317-.489-.353c-.037.036-.037.036-.037.071.188.07.376.212.488.423.113.247.15.458.15.705 0 .198-.037.49-.187.864-.15.056-.301.187-.414.391 0 .032 0 .05.038.05 0 0 .037-.032.075-.092.075-.06.113-.12.188-.18a.6.6 0 0 1 .3-.091c.189 0 .377.024.49.074.15.045.225.095.263.151q.056.08.112.148a.08.08 0 0 0 .038.067M8.175 5.154c-.037-.035-.037-.106-.037-.176 0-.141 0-.212.075-.318q.112-.105.225-.105c.113 0 .188.07.264.14.037.107.075.177.075.283q0 .264-.226.317s.038.035.075.035c.076 0 .113.036.188.07.038-.21.076-.352.076-.528 0-.212-.038-.353-.113-.458a.5.5 0 0 0-.376-.141.63.63 0 0 0-.338.105c-.076.106-.113.177-.113.282 0 .177.037.318.113.459.037 0 .075.035.112.035m.451.564c-.488.317-.864.459-1.165.459-.263 0-.526-.106-.752-.283.038.071.075.141.113.177l.225.211c.15.141.339.212.527.212.263 0 .564-.141.94-.388l.338-.212c.075-.07.15-.14.15-.246 0-.036 0-.07-.037-.07-.038-.071-.226-.177-.602-.283-.338-.14-.601-.211-.752-.211q-.168 0-.564.211c-.225.141-.375.282-.375.423 0 0 .037.035.075.106.225.176.45.282.676.282.301 0 .677-.141 1.166-.494v.07c.037 0 .037.036.037.036m.865 7.122c.15.265.414.398.714.398q.113 0 .226-.031a.5.5 0 0 0 .188-.067q.056-.037.113-.078c.075-.025.075-.042.113-.06l.639-.518c.15-.113.3-.21.488-.296.15-.085.301-.141.376-.173a.7.7 0 0 0 .263-.127.35.35 0 0 0 .076-.204c0-.103-.076-.18-.15-.237a.8.8 0 0 0-.226-.12c-.075-.024-.15-.08-.264-.176a.9.9 0 0 1-.188-.384l-.037-.205c-.038-.095-.038-.165-.075-.204 0-.01 0-.014-.038-.014a.2.2 0 0 0-.15.091q-.112.09-.226.198c-.037.07-.15.134-.225.194a.7.7 0 0 1-.301.091c-.3 0-.451-.077-.564-.229a1.2 1.2 0 0 1-.15-.391c-.076-.06-.113-.092-.188-.092-.188 0-.264.184-.264.554v1.096c0 .032-.037.103-.037.212-.038.11-.038.233-.038.374l-.075.39v.007m-5.451-.187q.525.072 1.207.308.683.234.834.236c.263 0 .482-.11.662-.32a.5.5 0 0 0 .038-.242q0-.499-.643-1.266l-.256-.32a3 3 0 0 1-.2-.307 3 3 0 0 0-.206-.317 1 1 0 0 0-.23-.244.8.8 0 0 0-.334-.162q-.239.043-.32.145a.4.4 0 0 0-.09.218q-.014.111-.071.148a.7.7 0 0 1-.188.057q-.029 0-.102.003H4.04q-.3.002-.406.057a.5.5 0 0 0-.143.342q0 .084.045.285.045.197.045.31.001.218-.139.434c-.094.152-.143.264-.143.345q.058.205.741.29m1.252-3.205c0-.244.068-.512.207-.829.135-.317.27-.529.402-.67-.008-.035-.026-.035-.057-.035l-.037-.035c-.11.105-.24.352-.399.705-.158.317-.24.61-.24.825q.002.236.116.416.124.176.598.5l.399.244c.424.345.65.585.65.726 0 .074-.038.148-.15.23a.36.36 0 0 1-.264.126q-.01-.001-.01.025-.001.005.116.211c.158.201.496.3.947.3.827 0 1.466-.317 1.955-.952 0-.176 0-.286-.038-.331v-.13q0-.346.113-.516c.075-.112.15-.165.263-.165a.4.4 0 0 1 .226.077c.037-.271.037-.507.037-.719 0-.32 0-.585-.075-.832a1.8 1.8 0 0 0-.188-.529l-.225-.317c-.075-.106-.113-.212-.188-.317-.038-.141-.075-.247-.075-.424-.113-.176-.188-.352-.301-.528a7 7 0 0 0-.226-.494l-.338.247c-.376.247-.677.352-.94.352-.226 0-.413-.035-.526-.176l-.226-.176a.9.9 0 0 1-.113.388l-.236.423c-.106.247-.162.388-.173.493-.015.07-.027.141-.034.141l-.282.53c-.305.528-.459 1.018-.459 1.424q0 .121.023.25a.51.51 0 0 1-.252-.458m2.692 3.335q-.734 0-1.128.185v-.01a.87.87 0 0 1-.692.32q-.277 0-.865-.2a11 11 0 0 0-1.049-.29 2 2 0 0 0-.206-.036 9 9 0 0 1-.29-.048 2 2 0 0 1-.267-.072.7.7 0 0 1-.225-.108q-.078-.068-.078-.15a.5.5 0 0 1 .039-.182q.037-.059.076-.113a.7.7 0 0 0 .064-.109.5.5 0 0 0 .053-.099.4.4 0 0 0 .038-.102c.007-.035.015-.07.015-.106s-.015-.14-.046-.328a3 3 0 0 1-.045-.348q-.002-.234.12-.367c.083-.088.162-.134.245-.134h.432a.4.4 0 0 0 .166-.06c.026-.057.049-.102.064-.145.018-.042.026-.074.033-.088l.023-.06a.5.5 0 0 1 .06-.08.2.2 0 0 1-.045-.138q-.002-.062.008-.095c0-.127.063-.307.199-.543l.131-.223c.11-.19.192-.331.252-.472q.095-.212.207-.635.09-.37.429-.74l.282-.317c.195-.212.323-.388.394-.53.072-.14.11-.316.11-.457q0-.107-.06-.635a10 10 0 0 1-.057-1.023c0-.246.022-.423.071-.599.05-.176.136-.352.263-.493a1 1 0 0 1 .49-.353q.338-.105.789-.106c.112 0 .225 0 .338.035q.17 0 .451.106c.15.07.3.141.414.247.15.106.263.282.376.458.075.212.15.423.187.705.038.177.038.353.076.6 0 .211.037.352.037.458.038.106.038.247.075.423.038.141.076.282.15.388.076.141.151.282.264.423.113.176.263.353.413.564.339.353.602.74.752 1.128.188.353.301.811.301 1.301q0 .366-.113.71c.076 0 .113.027.15.077q.057.073.114.32l.037.261a.42.42 0 0 0 .188.215c.075.064.15.117.263.16.075.034.188.084.263.147q.113.106.113.222 0 .178-.113.272a.6.6 0 0 1-.263.151q-.113.055-.45.206a4 4 0 0 0-.565.38l-.376.3a2 2 0 0 1-.413.296.87.87 0 0 1-.414.096l-.263-.029c-.3-.074-.489-.215-.601-.43a14 14 0 0 0-1.391-.101"/><path fill="#F7CF56" fill-rule="evenodd" d="M7.984 12.782q-.734 0-1.128.185v-.01a.87.87 0 0 1-.692.32q-.277 0-.865-.2a11 11 0 0 0-1.049-.29 2 2 0 0 0-.206-.036 9 9 0 0 1-.29-.048 2 2 0 0 1-.267-.072.7.7 0 0 1-.225-.108q-.078-.068-.078-.15a.5.5 0 0 1 .039-.182q.037-.059.076-.113a.7.7 0 0 0 .064-.109.5.5 0 0 0 .053-.099.4.4 0 0 0 .038-.102c.007-.035.015-.07.015-.106s-.015-.14-.046-.328a3 3 0 0 1-.045-.348q-.002-.234.12-.367c.083-.088.162-.134.245-.134h.432a.4.4 0 0 0 .166-.06c.026-.057.049-.102.064-.145.018-.042.026-.074.033-.088l.023-.06a.5.5 0 0 1 .06-.08.2.2 0 0 1-.045-.138q-.002-.062.008-.095c0-.127.063-.307.199-.543l.131-.223c.11-.19.192-.331.252-.472q.095-.212.207-.635.09-.37.429-.74l.282-.317c.195-.212.323-.388.394-.53.072-.14.11-.316.11-.457q0-.107-.06-.635a10 10 0 0 1-.057-1.023c0-.246.022-.423.071-.599.05-.176.136-.352.263-.493a1 1 0 0 1 .49-.353q.338-.105.789-.106c.112 0 .225 0 .338.035q.17 0 .451.106c.15.07.3.141.414.247.15.106.263.282.376.458.075.212.15.423.187.705.038.177.038.353.076.6 0 .211.037.352.037.458.038.106.038.247.075.423.038.141.076.282.15.388.076.141.151.282.264.423.113.176.263.353.413.564.339.353.602.74.752 1.128.188.353.301.811.301 1.301q0 .366-.113.71c.076 0 .113.027.15.077q.057.073.114.32l.037.261a.42.42 0 0 0 .188.215c.075.064.15.117.263.16.075.034.188.084.263.147q.113.106.113.222 0 .178-.113.272a.6.6 0 0 1-.263.151q-.113.055-.45.206a4 4 0 0 0-.565.38l-.376.3a2 2 0 0 1-.413.296.87.87 0 0 1-.414.096l-.263-.029c-.3-.074-.489-.215-.601-.43a14 14 0 0 0-1.391-.101M6.972 4.66c.113 0 .188.106.188.283h-.075c0-.071-.038-.106-.038-.177h-.112v-.07c.037 0 .037-.036.037-.036m1.654.283c-.037-.106-.075-.177-.15-.177 0-.035-.038-.035-.038-.07.038 0 .076-.036.076-.036.037 0 .075.036.112.071s.038.07.038.106 0 .07.038.106zm-1.88 0c0 .176.038.282.189.352-.038.035-.075.035-.113.07-.15-.14-.203-.281-.203-.422 0-.177.015-.283.09-.424a.28.28 0 0 1 .263-.176c.15 0 .226.07.301.176s.075.212.075.318c0 .14 0 .211-.037.211v.036h-.038v-.07c0-.107-.038-.212-.075-.318-.075-.07-.113-.106-.188-.106a.21.21 0 0 0-.188.106c-.075.07-.075.14-.075.247Zm4.925 5.277c0 .032 0 .046-.037.046 0 0-.038-.02-.038-.067a3 3 0 0 1-.112-.148c-.038-.056-.113-.106-.264-.151-.112-.05-.3-.074-.488-.074a.6.6 0 0 0-.301.091c-.075.06-.113.12-.188.18a.5.5 0 0 1-.075.092c-.038 0-.038-.018-.038-.05.113-.204.263-.335.414-.391a2.3 2.3 0 0 0 .188-.864 1.6 1.6 0 0 0-.15-.705.92.92 0 0 0-.49-.423c0-.035 0-.035.038-.07.188.035.338.14.489.352s.226.458.226.811c0 .254-.038.543-.15.87a2 2 0 0 0 .225.025s.037 0 .075.004c.225.028.413.095.526.201.113.102.15.194.15.271M8.139 4.978c0 .07 0 .14.037.176-.037 0-.075-.035-.112-.035a.9.9 0 0 1-.113-.459c0-.105.037-.176.113-.282a.63.63 0 0 1 .338-.105.5.5 0 0 1 .376.14c.075.106.113.247.113.459 0 .176-.038.317-.076.529-.075-.035-.112-.07-.188-.07-.037 0-.075-.036-.075-.036q.226-.052.226-.317c0-.106-.038-.176-.075-.282-.076-.07-.15-.141-.264-.141q-.113 0-.225.105c-.075.106-.075.177-.075.318M7.46 6.177c.3 0 .677-.142 1.165-.459 0 0 0-.035-.037-.035v-.07c-.489.352-.865.493-1.166.493-.225 0-.45-.106-.676-.282-.038-.07-.075-.106-.075-.106 0-.14.15-.282.375-.423q.396-.21.564-.211c.15 0 .414.07.752.211.376.106.564.212.602.282.037 0 .037.035.037.07 0 .106-.075.177-.15.247l-.338.212c-.376.247-.677.388-.94.388a.77.77 0 0 1-.527-.212l-.225-.211a.8.8 0 0 1-.113-.177c.226.177.489.283.752.283M5.499 8.618c-.14.317-.207.585-.207.829q0 .295.252.458a1.4 1.4 0 0 1-.023-.25c0-.406.154-.896.459-1.425l.282-.529c.007 0 .019-.07.034-.14.01-.106.067-.247.173-.494l.236-.423a.9.9 0 0 0 .113-.388l.226.176c.113.141.3.176.526.176.263 0 .564-.105.94-.352l.338-.247c.075.141.15.317.226.494.113.176.188.352.3.528 0 .177.038.283.076.424.075.105.113.211.188.317l.225.317c.075.141.15.317.188.529.075.247.075.511.075.832 0 .212 0 .448-.037.72a.4.4 0 0 0-.226-.078c-.113 0-.188.053-.263.165q-.113.17-.113.515v.13c.038.046.038.156.038.332-.489.635-1.128.952-1.955.952-.451 0-.79-.099-.947-.3a3 3 0 0 1-.117-.211q0-.026.011-.025a.36.36 0 0 0 .264-.127c.112-.08.15-.155.15-.229 0-.141-.226-.38-.65-.726l-.399-.244q-.474-.324-.598-.5a.77.77 0 0 1-.116-.416c0-.215.082-.508.24-.825.158-.353.29-.6.399-.705l.037.035c.03 0 .05 0 .057.035-.132.141-.267.353-.402.67" clip-rule="evenodd"/><path fill="#F7CF56" fill-rule="evenodd" d="M8.626 5.718c-.488.317-.864.459-1.165.459-.263 0-.526-.106-.752-.283.038.071.075.141.113.177l.225.211c.15.141.339.212.527.212.263 0 .564-.141.94-.388l.338-.212c.075-.07.15-.14.15-.246 0-.036 0-.07-.037-.07-.038-.071-.226-.177-.602-.283-.338-.14-.601-.211-.752-.211q-.168 0-.564.211c-.225.141-.375.282-.375.423 0 0 .037.035.075.106.225.176.45.282.676.282.301 0 .677-.141 1.166-.494v.07c.037 0 .037.036.037.036M7.8 5.33s.038 0 .038-.035-.038-.07-.075-.106l-.075-.035c-.038 0-.038 0-.038.035s.038.07.038.07c.037.036.037.071.075.071zm-.488-.035c0 .035 0 .035.037.035h.038c.075-.07.113-.105.113-.14 0 0 0-.036-.038-.036 0 0-.038.035-.113.035-.037.036-.037.07-.037.106" clip-rule="evenodd"/><path fill="#FFF" d="M7.837 5.295c0 .035-.038.035-.038.035h-.037c-.038 0-.038-.035-.075-.07 0 0-.038-.035-.038-.07s0-.036.038-.036l.075.035c.037.036.075.07.075.106m-.677-.352c0-.177-.075-.283-.188-.283 0 0 0 .036-.037.036v.07h.112c0 .07.038.106.038.177zm1.316-.177c.075 0 .113.07.15.177h.076c-.038-.036-.038-.071-.038-.106s0-.07-.038-.106c-.037-.035-.075-.07-.112-.07 0 0-.038.035-.076.035 0 .035.038.035.038.07m-1.128.564c-.037 0-.037 0-.037-.035s0-.07.037-.106c.075 0 .113-.035.113-.035.038 0 .038.035.038.035 0 .036-.038.07-.113.141zm-.413-.035c-.15-.07-.188-.176-.188-.352 0-.106 0-.177.075-.247a.21.21 0 0 1 .188-.106c.075 0 .113.035.188.106.037.106.075.211.075.317v.07h.038v-.035c.037 0 .037-.07.037-.211 0-.106 0-.212-.075-.318-.075-.105-.15-.176-.3-.176a.28.28 0 0 0-.264.176c-.075.141-.09.247-.09.424 0 .14.053.282.203.423.038-.036.075-.036.113-.07Zm4.699 4.971c.037 0 .037-.014.037-.046 0-.077-.037-.169-.15-.271-.113-.106-.3-.173-.526-.201-.038-.004-.075-.004-.075-.004-.038-.007-.038-.007-.075-.007a2 2 0 0 1-.15-.017c.112-.328.15-.617.15-.871 0-.353-.076-.6-.226-.811s-.3-.317-.489-.353c-.037.036-.037.036-.037.071.188.07.376.212.488.423.113.247.15.458.15.705 0 .198-.037.49-.187.864-.15.056-.301.187-.414.391 0 .032 0 .05.038.05 0 0 .037-.032.075-.092.075-.06.113-.12.188-.18a.6.6 0 0 1 .3-.091c.189 0 .377.024.49.074.15.045.225.095.263.151q.056.08.112.148a.08.08 0 0 0 .038.067M8.175 5.154c-.037-.035-.037-.106-.037-.176 0-.141 0-.212.075-.318q.112-.105.225-.105c.113 0 .188.07.264.14.037.107.075.177.075.283q0 .264-.226.317s.038.035.075.035c.076 0 .113.036.188.07.038-.21.076-.352.076-.528 0-.212-.038-.353-.113-.458a.5.5 0 0 0-.376-.141.63.63 0 0 0-.338.105c-.076.106-.113.177-.113.282 0 .177.037.318.113.459.037 0 .075.035.112.035m.451.564c-.488.317-.864.459-1.165.459-.263 0-.526-.106-.752-.283.038.071.075.141.113.177l.225.211c.15.141.339.212.527.212.263 0 .564-.141.94-.388l.338-.212c.075-.07.15-.14.15-.246 0-.036 0-.07-.037-.07-.038-.071-.226-.177-.602-.283-.338-.14-.601-.211-.752-.211q-.168 0-.564.211c-.225.141-.375.282-.375.423 0 0 .037.035.075.106.225.176.45.282.676.282.301 0 .677-.141 1.166-.494v.07c.037 0 .037.036.037.036m.865 7.122c.15.265.414.398.714.398q.113 0 .226-.031a.5.5 0 0 0 .188-.067q.056-.037.113-.078c.075-.025.075-.042.113-.06l.639-.518c.15-.113.3-.21.488-.296.15-.085.301-.141.376-.173a.7.7 0 0 0 .263-.127.35.35 0 0 0 .076-.204c0-.103-.076-.18-.15-.237a.8.8 0 0 0-.226-.12c-.075-.024-.15-.08-.264-.176a.9.9 0 0 1-.188-.384l-.037-.205c-.038-.095-.038-.165-.075-.204 0-.01 0-.014-.038-.014a.2.2 0 0 0-.15.091q-.112.09-.226.198c-.037.07-.15.134-.225.194a.7.7 0 0 1-.301.091c-.3 0-.451-.077-.564-.229a1.2 1.2 0 0 1-.15-.391c-.076-.06-.113-.092-.188-.092-.188 0-.264.184-.264.554v1.096c0 .032-.037.103-.037.212-.038.11-.038.233-.038.374l-.075.39v.007m-5.451-.187q.525.072 1.207.308.683.234.834.236c.263 0 .482-.11.662-.32a.5.5 0 0 0 .038-.242q0-.499-.643-1.266l-.256-.32a3 3 0 0 1-.2-.307 3 3 0 0 0-.206-.317 1 1 0 0 0-.23-.244.8.8 0 0 0-.334-.162q-.239.043-.32.145a.4.4 0 0 0-.09.218q-.014.111-.071.148a.7.7 0 0 1-.188.057q-.029 0-.102.003H4.04q-.3.002-.406.057a.5.5 0 0 0-.143.342q0 .084.045.285.045.197.045.31.001.218-.139.434c-.094.152-.143.264-.143.345q.058.205.741.29m1.252-3.205c0-.244.068-.512.207-.829.135-.317.27-.529.402-.67-.008-.035-.026-.035-.057-.035l-.037-.035c-.11.105-.24.352-.399.705-.158.317-.24.61-.24.825q.002.236.116.416.124.176.598.5l.399.244c.424.345.65.585.65.726 0 .074-.038.148-.15.23a.36.36 0 0 1-.264.126q-.01-.001-.01.025-.001.005.116.211c.158.201.496.3.947.3.827 0 1.466-.317 1.955-.952 0-.176 0-.286-.038-.331v-.13q0-.346.113-.516c.075-.112.15-.165.263-.165a.4.4 0 0 1 .226.077c.037-.271.037-.507.037-.719 0-.32 0-.585-.075-.832a1.8 1.8 0 0 0-.188-.529l-.225-.317c-.075-.106-.113-.212-.188-.317-.038-.141-.075-.247-.075-.424-.113-.176-.188-.352-.301-.528a7 7 0 0 0-.226-.494l-.338.247c-.376.247-.677.352-.94.352-.226 0-.413-.035-.526-.176l-.226-.176a.9.9 0 0 1-.113.388l-.236.423c-.106.247-.162.388-.173.493-.015.07-.027.141-.034.141l-.282.53c-.305.528-.459 1.018-.459 1.424q0 .121.023.25a.51.51 0 0 1-.252-.458m2.692 3.335q-.734 0-1.128.185v-.01a.87.87 0 0 1-.692.32q-.277 0-.865-.2a11 11 0 0 0-1.049-.29 2 2 0 0 0-.206-.036 9 9 0 0 1-.29-.048 2 2 0 0 1-.267-.072.7.7 0 0 1-.225-.108q-.078-.068-.078-.15a.5.5 0 0 1 .039-.182q.037-.059.076-.113a.7.7 0 0 0 .064-.109.5.5 0 0 0 .053-.099.4.4 0 0 0 .038-.102c.007-.035.015-.07.015-.106s-.015-.14-.046-.328a3 3 0 0 1-.045-.348q-.002-.234.12-.367c.083-.088.162-.134.245-.134h.432a.4.4 0 0 0 .166-.06c.026-.057.049-.102.064-.145.018-.042.026-.074.033-.088l.023-.06a.5.5 0 0 1 .06-.08.2.2 0 0 1-.045-.138q-.002-.062.008-.095c0-.127.063-.307.199-.543l.131-.223c.11-.19.192-.331.252-.472q.095-.212.207-.635.09-.37.429-.74l.282-.317c.195-.212.323-.388.394-.53.072-.14.11-.316.11-.457q0-.107-.06-.635a10 10 0 0 1-.057-1.023c0-.246.022-.423.071-.599.05-.176.136-.352.263-.493a1 1 0 0 1 .49-.353q.338-.105.789-.106c.112 0 .225 0 .338.035q.17 0 .451.106c.15.07.3.141.414.247.15.106.263.282.376.458.075.212.15.423.187.705.038.177.038.353.076.6 0 .211.037.352.037.458.038.106.038.247.075.423.038.141.076.282.15.388.076.141.151.282.264.423.113.176.263.353.413.564.339.353.602.74.752 1.128.188.353.301.811.301 1.301q0 .366-.113.71c.076 0 .113.027.15.077q.057.073.114.32l.037.261a.42.42 0 0 0 .188.215c.075.064.15.117.263.16.075.034.188.084.263.147q.113.106.113.222 0 .178-.113.272a.6.6 0 0 1-.263.151q-.113.055-.45.206a4 4 0 0 0-.565.38l-.376.3a2 2 0 0 1-.413.296.87.87 0 0 1-.414.096l-.263-.029c-.3-.074-.489-.215-.601-.43a14 14 0 0 0-1.391-.101"/><path fill="#FFF" d="M8.175 5.154c-.037-.035-.037-.106-.037-.176 0-.141 0-.212.075-.318q.112-.105.225-.105c.113 0 .188.07.264.14.037.107.075.177.075.283q0 .264-.226.317s.038.035.075.035c.076 0 .113.036.188.07.038-.21.076-.352.076-.528 0-.212-.038-.353-.113-.458a.5.5 0 0 0-.376-.141.63.63 0 0 0-.338.105c-.076.106-.113.177-.113.282 0 .177.037.318.113.459.037 0 .075.035.112.035m-1.24.141c-.15-.07-.188-.176-.188-.352 0-.106 0-.177.075-.247a.21.21 0 0 1 .188-.106c.075 0 .113.035.188.106.037.106.075.211.075.317v.07h.038v-.035c.037 0 .037-.07.037-.211 0-.106 0-.212-.075-.318-.075-.105-.15-.176-.3-.176a.28.28 0 0 0-.264.176c-.075.141-.09.247-.09.424 0 .14.053.282.203.423.038-.036.075-.036.113-.07Z"/><path fill="#FFF" d="M7.16 4.943c0-.177-.075-.283-.188-.283 0 0 0 .036-.037.036v.07h.112c0 .07.038.106.038.177zm1.316-.177c.075 0 .113.07.15.177h.076c-.038-.036-.038-.071-.038-.106s0-.07-.038-.106c-.037-.035-.075-.07-.112-.07 0 0-.038.035-.076.035 0 .035.038.035.038.07M5.292 9.447c0-.244.068-.512.207-.829.135-.317.27-.529.402-.67-.008-.035-.026-.035-.057-.035l-.037-.035c-.11.105-.24.352-.399.705-.158.317-.24.61-.24.825q.002.236.116.416.124.176.598.5l.399.244c.424.345.65.585.65.726 0 .074-.038.148-.15.23a.36.36 0 0 1-.264.126q-.01-.001-.01.025-.001.005.116.211c.158.201.496.3.947.3.827 0 1.466-.317 1.955-.952 0-.176 0-.286-.038-.331v-.13q0-.346.113-.516c.075-.112.15-.165.263-.165a.4.4 0 0 1 .226.077c.037-.271.037-.507.037-.719 0-.32 0-.585-.075-.832a1.8 1.8 0 0 0-.188-.529l-.225-.317c-.075-.106-.113-.212-.188-.317-.038-.141-.075-.247-.075-.424-.113-.176-.188-.352-.301-.528a7 7 0 0 0-.226-.494l-.338.247c-.376.247-.677.352-.94.352-.226 0-.413-.035-.526-.176l-.226-.176a.9.9 0 0 1-.113.388l-.236.423c-.106.247-.162.388-.173.493-.015.07-.027.141-.034.141l-.282.53c-.305.528-.459 1.018-.459 1.424q0 .121.023.25a.51.51 0 0 1-.252-.458"/><path fill="#FFF" d="M11.634 10.266c.037 0 .037-.014.037-.046 0-.077-.037-.169-.15-.271-.113-.106-.3-.173-.526-.201-.038-.004-.075-.004-.075-.004-.038-.007-.038-.007-.075-.007a2 2 0 0 1-.15-.017c.112-.328.15-.617.15-.871 0-.353-.076-.6-.226-.811s-.3-.317-.489-.353c-.037.036-.037.036-.037.071.188.07.376.212.488.423.113.247.15.458.15.705 0 .198-.037.49-.187.864-.15.056-.301.187-.414.391 0 .032 0 .05.038.05 0 0 .037-.032.075-.092.075-.06.113-.12.188-.18a.6.6 0 0 1 .3-.091c.189 0 .377.024.49.074.15.045.225.095.263.151q.056.08.112.148a.08.08 0 0 0 .038.067"/><path fill="#000" d="M7.837 5.295c0 .035-.038.035-.038.035h-.037c-.038 0-.038-.035-.075-.07 0 0-.038-.035-.038-.07s0-.036.038-.036l.075.035c.037.036.075.07.075.106m-.677-.352c0-.177-.075-.283-.188-.283 0 0 0 .036-.037.036v.07h.112c0 .07.038.106.038.177zm1.316-.177c.075 0 .113.07.15.177h.076c-.038-.036-.038-.071-.038-.106s0-.07-.038-.106c-.037-.035-.075-.07-.112-.07 0 0-.038.035-.076.035 0 .035.038.035.038.07m-1.128.564c-.037 0-.037 0-.037-.035s0-.07.037-.106c.075 0 .113-.035.113-.035.038 0 .038.035.038.035 0 .036-.038.07-.113.141zm-.413-.035c-.15-.07-.188-.176-.188-.352 0-.106 0-.177.075-.247a.21.21 0 0 1 .188-.106c.075 0 .113.035.188.106.037.106.075.211.075.317v.07h.038v-.035c.037 0 .037-.07.037-.211 0-.106 0-.212-.075-.318-.075-.105-.15-.176-.3-.176a.28.28 0 0 0-.264.176c-.075.141-.09.247-.09.424 0 .14.053.282.203.423.038-.036.075-.036.113-.07Zm4.699 4.971c.037 0 .037-.014.037-.046 0-.077-.037-.169-.15-.271-.113-.106-.3-.173-.526-.201-.038-.004-.075-.004-.075-.004-.038-.007-.038-.007-.075-.007a2 2 0 0 1-.15-.017c.112-.328.15-.617.15-.871 0-.353-.076-.6-.226-.811s-.3-.317-.489-.353c-.037.036-.037.036-.037.071.188.07.376.212.488.423.113.247.15.458.15.705 0 .198-.037.49-.187.864-.15.056-.301.187-.414.391 0 .032 0 .05.038.05 0 0 .037-.032.075-.092.075-.06.113-.12.188-.18a.6.6 0 0 1 .3-.091c.189 0 .377.024.49.074.15.045.225.095.263.151q.056.08.112.148a.08.08 0 0 0 .038.067M8.175 5.154c-.037-.035-.037-.106-.037-.176 0-.141 0-.212.075-.318q.112-.105.225-.105c.113 0 .188.07.264.14.037.107.075.177.075.283q0 .264-.226.317s.038.035.075.035c.076 0 .113.036.188.07.038-.21.076-.352.076-.528 0-.212-.038-.353-.113-.458a.5.5 0 0 0-.376-.141.63.63 0 0 0-.338.105c-.076.106-.113.177-.113.282 0 .177.037.318.113.459.037 0 .075.035.112.035m.451.564c-.488.317-.864.459-1.165.459-.263 0-.526-.106-.752-.283.038.071.075.141.113.177l.225.211c.15.141.339.212.527.212.263 0 .564-.141.94-.388l.338-.212c.075-.07.15-.14.15-.246 0-.036 0-.07-.037-.07-.038-.071-.226-.177-.602-.283-.338-.14-.601-.211-.752-.211q-.168 0-.564.211c-.225.141-.375.282-.375.423 0 0 .037.035.075.106.225.176.45.282.676.282.301 0 .677-.141 1.166-.494v.07c.037 0 .037.036.037.036m.865 7.122c.15.265.414.398.714.398q.113 0 .226-.031a.5.5 0 0 0 .188-.067q.056-.037.113-.078c.075-.025.075-.042.113-.06l.639-.518c.15-.113.3-.21.488-.296.15-.085.301-.141.376-.173a.7.7 0 0 0 .263-.127.35.35 0 0 0 .076-.204c0-.103-.076-.18-.15-.237a.8.8 0 0 0-.226-.12c-.075-.024-.15-.08-.264-.176a.9.9 0 0 1-.188-.384l-.037-.205c-.038-.095-.038-.165-.075-.204 0-.01 0-.014-.038-.014a.2.2 0 0 0-.15.091q-.112.09-.226.198c-.037.07-.15.134-.225.194a.7.7 0 0 1-.301.091c-.3 0-.451-.077-.564-.229a1.2 1.2 0 0 1-.15-.391c-.076-.06-.113-.092-.188-.092-.188 0-.264.184-.264.554v1.096c0 .032-.037.103-.037.212-.038.11-.038.233-.038.374l-.075.39v.007m-5.451-.187q.525.072 1.207.308.683.234.834.236c.263 0 .482-.11.662-.32a.5.5 0 0 0 .038-.242q0-.499-.643-1.266l-.256-.32a3 3 0 0 1-.2-.307 3 3 0 0 0-.206-.317 1 1 0 0 0-.23-.244.8.8 0 0 0-.334-.162q-.239.043-.32.145a.4.4 0 0 0-.09.218q-.014.111-.071.148a.7.7 0 0 1-.188.057q-.029 0-.102.003H4.04q-.3.002-.406.057a.5.5 0 0 0-.143.342q0 .084.045.285.045.197.045.31.001.218-.139.434c-.094.152-.143.264-.143.345q.058.205.741.29m1.252-3.205c0-.244.068-.512.207-.829.135-.317.27-.529.402-.67-.008-.035-.026-.035-.057-.035l-.037-.035c-.11.105-.24.352-.399.705-.158.317-.24.61-.24.825q.002.236.116.416.124.176.598.5l.399.244c.424.345.65.585.65.726 0 .074-.038.148-.15.23a.36.36 0 0 1-.264.126q-.01-.001-.01.025-.001.005.116.211c.158.201.496.3.947.3.827 0 1.466-.317 1.955-.952 0-.176 0-.286-.038-.331v-.13q0-.346.113-.516c.075-.112.15-.165.263-.165a.4.4 0 0 1 .226.077c.037-.271.037-.507.037-.719 0-.32 0-.585-.075-.832a1.8 1.8 0 0 0-.188-.529l-.225-.317c-.075-.106-.113-.212-.188-.317-.038-.141-.075-.247-.075-.424-.113-.176-.188-.352-.301-.528a7 7 0 0 0-.226-.494l-.338.247c-.376.247-.677.352-.94.352-.226 0-.413-.035-.526-.176l-.226-.176a.9.9 0 0 1-.113.388l-.236.423c-.106.247-.162.388-.173.493-.015.07-.027.141-.034.141l-.282.53c-.305.528-.459 1.018-.459 1.424q0 .121.023.25a.51.51 0 0 1-.252-.458m2.692 3.335q-.734 0-1.128.185v-.01a.87.87 0 0 1-.692.32q-.277 0-.865-.2a11 11 0 0 0-1.049-.29 2 2 0 0 0-.206-.036 9 9 0 0 1-.29-.048 2 2 0 0 1-.267-.072.7.7 0 0 1-.225-.108q-.078-.068-.078-.15a.5.5 0 0 1 .039-.182q.037-.059.076-.113a.7.7 0 0 0 .064-.109.5.5 0 0 0 .053-.099.4.4 0 0 0 .038-.102c.007-.035.015-.07.015-.106s-.015-.14-.046-.328a3 3 0 0 1-.045-.348q-.002-.234.12-.367c.083-.088.162-.134.245-.134h.432a.4.4 0 0 0 .166-.06c.026-.057.049-.102.064-.145.018-.042.026-.074.033-.088l.023-.06a.5.5 0 0 1 .06-.08.2.2 0 0 1-.045-.138q-.002-.062.008-.095c0-.127.063-.307.199-.543l.131-.223c.11-.19.192-.331.252-.472q.095-.212.207-.635.09-.37.429-.74l.282-.317c.195-.212.323-.388.394-.53.072-.14.11-.316.11-.457q0-.107-.06-.635a10 10 0 0 1-.057-1.023c0-.246.022-.423.071-.599.05-.176.136-.352.263-.493a1 1 0 0 1 .49-.353q.338-.105.789-.106c.112 0 .225 0 .338.035q.17 0 .451.106c.15.07.3.141.414.247.15.106.263.282.376.458.075.212.15.423.187.705.038.177.038.353.076.6 0 .211.037.352.037.458.038.106.038.247.075.423.038.141.076.282.15.388.076.141.151.282.264.423.113.176.263.353.413.564.339.353.602.74.752 1.128.188.353.301.811.301 1.301q0 .366-.113.71c.076 0 .113.027.15.077q.057.073.114.32l.037.261a.42.42 0 0 0 .188.215c.075.064.15.117.263.16.075.034.188.084.263.147q.113.106.113.222 0 .178-.113.272a.6.6 0 0 1-.263.151q-.113.055-.45.206a4 4 0 0 0-.565.38l-.376.3a2 2 0 0 1-.413.296.87.87 0 0 1-.414.096l-.263-.029c-.3-.074-.489-.215-.601-.43a14 14 0 0 0-1.391-.101"/></svg>