<svg xmlns="http://www.w3.org/2000/svg" width="24" height="24" fill="none" viewBox="0 0 16 16"><rect width="16" height="16" fill="#DEDACE" rx="4"/><rect width="14" height="14" x="1" y="1" fill="url(&quot;#a&quot;)" rx="3"/><path fill="#CA0F22" d="M1 10h14v1H1z"/><path fill="#0E308A" d="M1 11h14v1a3 3 0 0 1-3 3H4a3 3 0 0 1-3-3z"/><rect width="3" height="2" x="10" y="12" fill="#CA0F22" rx=".5"/><g clip-path="url(#b)"><path fill="#0E308A" d="m2.275 8.041 1.499-.002c.613 0 1.11-.495 1.11-1.106s-.497-1.107-1.11-1.107l-.39.002a.056.056 0 0 1-.055-.056c0-.03.025-.056.055-.056h1.497v-.47H3.384a.524.524 0 1 0 0 1.048l.391.005a.634.634 0 1 1 0 1.267h-1.5z"/><path fill="#0E308A" d="M2.275 7.456h1.5a.524.524 0 1 0 0-1.047l-.39-.004a.635.635 0 1 1 0-1.268H4.88v-.471H3.384c-.612 0-1.11.495-1.11 1.106s.498 1.106 1.11 1.106l.388.001c.03 0 .054.024.054.054s-.025.054-.054.054l-1.497.001zm3.771.114a.47.47 0 0 1-.473-.473V5.6a.47.47 0 0 1 .473-.464h1.6v-.47h-1.6a.94.94 0 0 0-.942.94v1.492c0 .518.422.94.942.94H7.64v-.47z"/><path fill="#0E308A" d="M5.688 5.605c0-.198.16-.36.358-.36h1.6v.472H6.268c-.11 0-.112.11-.112.11h1.15v.468H5.687zm.358 1.85a.36.36 0 0 1-.359-.357v-.691h1.619v.47h-1.15c.001.11.112.11.112.11H7.64v.468H6.045Zm2.722.113a.47.47 0 0 1-.471-.47V5.604c0-.26.21-.47.47-.47h1.55v-.47H8.762a.94.94 0 0 0-.942.94v1.493c0 .518.425.94.945.94h1.55V5.826H8.984v.47h.862v1.272z"/><path fill="#0E308A" d="M8.407 7.097c0 .2.161.361.36.361h.968V6.406h-.75v.47h.279v.111h-.276a.11.11 0 0 1-.11-.11l-.003-1.05s0-.11.111-.113h1.33v-.468h-1.55a.36.36 0 0 0-.359.36zm3.366-1.858a.153.153 0 0 1 .289 0l.752 2.222h-1.101V6.94h.369l-.166-.493-.54 1.592h-.555z"/><path fill="#0E308A" d="M12.966 7.568h-1.251v.47h1.904l-.99-2.93c-.087-.287-.373-.497-.712-.497-.34 0-.625.21-.712.495l-1 2.932h.499l.97-2.85a.261.261 0 0 1 .484 0z"/><path fill="#231F20" d="M13.26 5.039a.33.33 0 1 0 .002-.662.33.33 0 0 0-.002.662m-.284-.331a.283.283 0 0 1 .285-.284.284.284 0 1 1-.202.485.28.28 0 0 1-.083-.201"/><path fill="#231F20" d="M13.175 4.736v.156h-.048v-.367h.137c.05 0 .08 0 .11.022a.1.1 0 0 1 .039.085c0 .086-.07.097-.088.1l.103.16h-.058l-.1-.156zm0-.04h.098q.023.001.044-.004c.034-.008.046-.033.046-.06 0-.01 0-.034-.021-.05-.02-.017-.044-.016-.072-.016h-.095z"/></g><defs><linearGradient id="a" x1="2.5" x2="13.5" y1="2.5" y2="14.5" gradientUnits="userSpaceOnUse"><stop stop-color="#F1F1F1"/><stop offset="1" stop-color="#A6A6A6"/></linearGradient><clipPath id="b"><path fill="#fff" d="M2 4.333h12v4H2z"/></clipPath></defs></svg>