<svg xmlns="http://www.w3.org/2000/svg" width="24" height="24" viewBox="0 0 16 16"><path fill="#F6F6F8" d="M0 4a4 4 0 0 1 4-4h8a4 4 0 0 1 4 4v8a4 4 0 0 1-4 4H4a4 4 0 0 1-4-4z"/><path fill="#0222A9" d="m3.71 12.14 1.59-.7-1.59-3.1zM8 3.3 6.62 5.74 8 5.22l1.31.5.35-.39V2.64z"/><path fill="#011DA9" d="m12.28 12.14-2.5-3.26v4.3L8 13.94V6.6l1.79-.69 2.5 3.56V4.95l1.68-.66v7.13z"/><path fill="#069330" d="m5.4 4.3.8 1.61.42-.16L8 3.3l-1.67-.65zm3.91 1.43 1.28-1.44 1.7.66v4.52l-2.5-3.56z"/><path fill="#069330" d="m3.71 4.95-1.7-.66v7.13l1.7.72v-3.8l2.5 4.84 1.79.76V6.6l-1.8-.7v3.73l-2.49-4.7Z"/><path fill="#FE2015" d="M6.2 5.91v3.73l-2.49-4.7 1.7-.65.8 1.62Zm6.08 6.23-2.5-3.26v1.78l.52.71z"/><path fill="#FFC001" d="m9.79 5.91-1.8.69-1.79-.7L8 5.22l1.79.7Zm.8-1.62 1.69-.65 1.7.65-1.7.66-1.7-.66Zm-8.57 0 1.69-.65 1.7.65-1.7.66-1.7-.66Zm7.64-1.65L8 2l-1.67.64L8 3.3l1.66-.65Z"/></svg>