<svg xmlns="http://www.w3.org/2000/svg" width="24" height="24" viewBox="0 0 16 16"><rect width="16" height="16" fill="#FF4343" rx="4"/><path fill="#FFF" d="M4.47 11.892h.11c.101 0 .275.021.347.063a.32.32 0 0 1 .141.14q.035.078.035.342v.693c0 .208-.22.315-.327.338q-.16.034-.312.034-.437 0-.755-.227-.317-.228-.46-.713a4 4 0 0 1-.142-1.127q0-.531.13-1.036.13-.504.444-.787.313-.28.785-.281c.33 0 .522.083.765.335.247.257.485.55.624.98h.203V9.067h-.116a.6.6 0 0 1-.136.258.24.24 0 0 1-.162.068q-.056 0-.362-.123a3 3 0 0 0-.442-.15 2.2 2.2 0 0 0-.507-.053q-1.013 0-1.68.696-.669.697-.668 1.705 0 .564.217 1.02.171.351.474.634.303.282.698.455.396.173.996.173a4 4 0 0 0 1.746-.385v-.93q0-.244.027-.307a.33.33 0 0 1 .142-.17c.06-.034.227-.057.382-.068v-.152H4.47z"/><path fill="#FFF" d="M9.52 13.097q-.375.287-.998.287h-.237a.55.55 0 0 1-.276-.052.27.27 0 0 1-.116-.134q-.03-.082-.031-.448v-1.249c.213 0 .463.028.575.084q.168.083.295.326c.085.161.14.34.167.593h.18v-2.299H8.9c-.035.346-.116.577-.244.754q-.191.266-.617.266h-.176V9.683c-.002-.268.237-.237.237-.237h.28q.505 0 .69.059.315.098.487.308.174.21.268.69h.151V9.19H6.22v.18h.118q.216 0 .341.091.09.062.122.177.015.069.016.37v2.777q0 .334-.036.413a.3.3 0 0 1-.131.156.6.6 0 0 1-.312.07H6.22v.208h3.819l.23-1.412h-.21q-.165.59-.54.877"/><path fill="#FFF" d="M12.476 9.12q-.96-.039-1.618.626-.658.666-.657 1.664 0 .889.505 1.536.64.82 1.812.82 1.167 0 1.808-.86a2.44 2.44 0 0 0 .483-1.5q0-.998-.648-1.661-.648-.664-1.684-.625zm1.021 3.555q-.156.465-.438.676a.9.9 0 0 1-.55.165.88.88 0 0 1-.763-.383q-.39-.549-.39-1.694 0-.964.253-1.48.31-.627.905-.627.324 0 .571.182.249.18.408.622.16.44.16 1.33 0 .745-.156 1.21m-.977-5.028q1.169 0 1.81-.86a2.44 2.44 0 0 0 .482-1.5q0-.998-.647-1.661-.649-.664-1.685-.625-.96-.04-1.618.626t-.657 1.664q0 .889.505 1.536.64.82 1.812.82zm-.915-3.804q.31-.628.906-.628a.93.93 0 0 1 .57.182q.249.181.409.622.16.44.16 1.33 0 .745-.157 1.21-.156.464-.438.675a.9.9 0 0 1-.55.166.88.88 0 0 1-.763-.383q-.39-.548-.39-1.695 0-.964.252-1.48"/><path fill="#FFF" d="M10.265 6.092h-.21q-.163.59-.54.877-.375.287-.998.287H8.28a.55.55 0 0 1-.276-.052.27.27 0 0 1-.116-.134q-.03-.082-.031-.448V5.373c.213 0 .463.028.575.084q.169.083.296.326c.084.161.14.34.166.593h.18V4.077h-.18c-.035.346-.116.578-.244.755q-.19.264-.617.265h-.176V3.555c-.002-.268.237-.237.237-.237h.28q.505 0 .69.06.315.096.488.307.172.21.268.69h.15V3.061H6.216v.181h.118q.218 0 .342.091.09.062.12.177.017.069.017.37v2.777q0 .334-.036.412a.3.3 0 0 1-.13.157.6.6 0 0 1-.313.069h-.118v.209h3.82l.229-1.413h.001zM3.057 7.293h-.102a.6.6 0 0 1-.387-.134q-.17-.135-.17-.517V3.96l2.907 3.622h.188V3.889c0-.21.018-.271.052-.358a.37.37 0 0 1 .145-.187q.093-.058.365-.094v-.188H4.613v.188q.357-.006.508.184c.074.094.11.188.11.455v1.935L2.97 3.06H1.593v.15c.13.004.135.048.205.085l.369.37-.001 2.976q0 .353-.14.5-.139.147-.493.15v.18h1.523v-.18z"/></svg>