<svg xmlns="http://www.w3.org/2000/svg" width="24" height="24" viewBox="0 0 16 16"><path fill="#1A1A1A" d="M0 4a4 4 0 0 1 4-4h8a4 4 0 0 1 4 4v8a4 4 0 0 1-4 4H4a4 4 0 0 1-4-4z"/><g fill="#ED1C24" clip-path="url(#a)"><path fill-rule="evenodd" d="M6.615 13a4.68 4.68 0 0 1-3.263-1.318A4.44 4.44 0 0 1 2 8.5c0-1.193.486-2.338 1.352-3.182A4.68 4.68 0 0 1 6.615 4h2.77c1.224 0 2.398.474 3.263 1.318A4.44 4.44 0 0 1 14 8.5a4.44 4.44 0 0 1-1.352 3.182A4.68 4.68 0 0 1 9.385 13zm0-1.125a3.5 3.5 0 0 1-2.447-.989A3.33 3.33 0 0 1 3.154 8.5c0-.895.365-1.754 1.014-2.386a3.5 3.5 0 0 1 2.447-.989h2.77c.918 0 1.798.356 2.447.989A3.33 3.33 0 0 1 12.846 8.5c0 .895-.364 1.754-1.014 2.386a3.5 3.5 0 0 1-2.447.989z" clip-rule="evenodd"/><path d="M5.714 6.38H7.07l1.874 2.956V6.38h1.343v4.238H8.944L7.062 7.663v2.956H5.715V6.381z"/></g><defs><clipPath id="a"><path fill="#fff" d="M2 4h12v9H2z"/></clipPath></defs></svg>