<svg xmlns="http://www.w3.org/2000/svg" width="24" height="24" viewBox="0 0 16 16"><path fill="#565B65" d="M0 4a4 4 0 0 1 4-4h8a4 4 0 0 1 4 4v8a4 4 0 0 1-4 4H4a4 4 0 0 1-4-4z"/><path fill="#FFF" d="M7.636 7.025q0 .536-.25.98a1.8 1.8 0 0 1-.74.702q-.492.26-1.207.26H4.63v1.991H3v-5.9h2.439q.706 0 1.198.252.5.251.75.694.25.444.25 1.021m-2.355.636q.69 0 .69-.636 0-.645-.69-.644h-.65v1.28zm2.984.335q0-.87.358-1.548a2.6 2.6 0 0 1 1.032-1.063Q10.321 5 11.187 5q1.098 0 1.848.594.748.585.965 1.598h-1.756a1.17 1.17 0 0 0-.441-.51 1.16 1.16 0 0 0-.641-.176q-.566 0-.908.41-.332.402-.332 1.08 0 .686.333 1.096.341.402.907.402.366 0 .64-.176.284-.176.442-.51H14q-.216 1.012-.965 1.606-.75.585-1.848.586-.866 0-1.532-.377a2.67 2.67 0 0 1-1.032-1.062q-.358-.687-.358-1.565"/></svg>