<svg xmlns="http://www.w3.org/2000/svg" width="24" height="24" viewBox="0 0 16 16"><path fill="#E1E5EC" d="M0 4a4 4 0 0 1 4-4h8a4 4 0 0 1 4 4v8a4 4 0 0 1-4 4H4a4 4 0 0 1-4-4z"/><path fill="#25BAA6" d="M2.228 10.275c-.431.345-.274.945.673 1.233a5.9 5.9 0 0 0 3.013.262l.193-.035v-1.098l-.967.38c-.357.138-.881.167-1.17.065-.29-.103-.236-.298.12-.436l2.017-.78V8.64L3.305 9.716s-.678.24-1.077.559"/><path fill="#ED1B24" fill-rule="evenodd" d="M9.219 8.573V5.448c0-.367-.063-.705-.382-.8-.244-.085-.395.16-.395.527V13l-1.955-.67V3c.831.167 2.042.56 2.693.797 1.655.614 2.216 1.378 2.216 3.098 0 1.677-.959 2.313-2.177 1.678" clip-rule="evenodd"/><path fill="#0185C6" d="M13.085 11.2s.574-.227.808-.546.13-.784-.791-1.098c-.819-.335-1.86-.45-2.712-.349a6.7 6.7 0 0 0-1.457.333l-.12.044v1.268l2.094-.796c.357-.139.882-.168 1.171-.065.29.102.235.297-.121.435l-3.145 1.21v1.222l4.273-1.657z"/></svg>