<svg xmlns="http://www.w3.org/2000/svg" width="24" height="24" viewBox="0 0 16 16"><path fill="#231F20" d="M0 4a4 4 0 0 1 4-4h8a4 4 0 0 1 4 4v8a4 4 0 0 1-4 4H4a4 4 0 0 1-4-4z"/><path fill="#E1E5EC" d="M13.938 5.407a23 23 0 0 0-1.856-.258C11.114 5.049 10.083 5 9.033 5a33 33 0 0 0-5.192.407l-.029.005-.48 1.356.097-.015c.623-.099 1.304-.183 2.018-.243a38 38 0 0 1 3.14-.124c1.05 0 2.048.04 2.978.119-.044.12-.274.78-.298.844H5.073l-.455 1.307h6.194c-.043.124-.273.78-.297.839a37 37 0 0 1-3.102.124c-1.065 0-2.095-.04-3.05-.129-.67-.06-1.294-.139-1.85-.238l-.043-.01L2 10.588l.062.01c.576.104 1.199.193 1.856.258.973.094 1.999.144 3.049.144 1.055 0 2.114-.05 3.155-.144.7-.065 1.385-.154 2.037-.258l.034-.005L14 5.423z"/></svg>