<svg xmlns="http://www.w3.org/2000/svg" width="24" height="24" viewBox="0 0 16 16"><rect width="16" height="16" fill="#003791" rx="4"/><path fill="#FFF" d="M12.037 4h-.426a1.5 1.5 0 0 0-.43.207l-8.78 5.96c-.342.234-.46.497-.374.695.068.162.262.284.645.284l-.006.006h8.152c.024 0 .043.02.043.037v.755c0 .037.024.056.05.056h1.47c.025 0 .05-.016.05-.056v-.742c0-.029.03-.056.058-.056h1.46q.01 0 .02-.003a.1.1 0 0 0 .016-.012.1.1 0 0 0 .011-.019.1.1 0 0 0 .004-.022v-.756c0-.028-.014-.056-.05-.056h-1.463c-.028 0-.052-.028-.052-.055V4.817c0-.442-.148-.722-.398-.817m-1.168 6.233c0 .029-.021.056-.047.056H3.98c-.057 0-.085-.02-.093-.037q-.013-.054.052-.093l6.802-4.627c.043-.037.128-.03.128.075z"/></svg>