<svg xmlns="http://www.w3.org/2000/svg" width="24" height="24" viewBox="0 0 16 16"><path fill="#0070D1" d="M0 4a4 4 0 0 1 4-4h8a4 4 0 0 1 4 4v8a4 4 0 0 1-4 4H4a4 4 0 0 1-4-4z"/><path fill="#FFF" fill-rule="evenodd" d="M13.893 10.654c-.234.319-.808.547-.808.547l-4.273 1.657v-1.222l3.144-1.21c.357-.138.412-.333.122-.435-.29-.103-.814-.074-1.17.065l-2.096.797V9.584l.121-.044s.606-.231 1.457-.333c.851-.101 1.893.014 2.711.349.923.315 1.026.778.792 1.098M9.22 8.573V5.448c0-.367-.063-.705-.382-.8-.244-.085-.395.16-.395.527V13l-1.955-.67V3c.831.167 2.042.56 2.693.797 1.655.614 2.216 1.378 2.216 3.098 0 1.677-.959 2.313-2.177 1.678m-6.318 2.935c-.947-.288-1.104-.888-.673-1.233.399-.32 1.077-.56 1.077-.56L6.107 8.64v1.226l-2.016.78c-.357.138-.411.333-.122.435.29.103.814.074 1.171-.064l.967-.38v1.098c-.06.012-.13.023-.193.035-.967.17-1.998.1-3.013-.262z" clip-rule="evenodd"/></svg>