<svg height="24" viewBox="0 0 16 16" width="24" xmlns="http://www.w3.org/2000/svg"><rect fill="#494858" height="16" rx="4" width="16"/><path clip-rule="evenodd" d="m2 5a1 1 0 0 0 -1 1v4a1 1 0 0 0 1 1h12a1 1 0 0 0 1-1v-4a1 1 0 0 0 -1-1z" fill="#fff" fill-rule="evenodd"/><path clip-rule="evenodd" d="m3.5 5a.5.5 0 0 0 -.5.5.5.5 0 0 1 -.5.5h-.5a1 1 0 0 0 -1 1v2a1 1 0 0 0 1 1h.5a.5.5 0 0 1 .5.5.5.5 0 0 0 .5.5h9a.5.5 0 0 0 .5-.5.5.5 0 0 1 .5-.5h.5a1 1 0 0 0 1-1v-2a1 1 0 0 0 -1-1h-.5a.5.5 0 0 1 -.5-.5.5.5 0 0 0 -.5-.5z" fill="#1b1c1d" fill-rule="evenodd"/><rect fill="#695ee8" height="4" rx=".25" width="6" x="5" y="6"/><path d="m8 8c-.8.8-2.333.667-3 .5v1.25c0 .138.112.25.25.25h5.5a.25.25 0 0 0 .25-.25v-1.75c-.667-.333-2.2-.8-3 0" fill="#382bd3"/><g fill="#fff"><circle cx="13" cy="8.667" r=".333"/><circle cx="13.667" cy="8" r=".333"/><circle cx="12.333" cy="8" r=".333"/><circle cx="13" cy="7.333" r=".333"/><rect height="2" rx=".15" width=".5" x="2.75" y="7"/><rect height="2" rx=".15" transform="matrix(0 1 -1 0 11.75 3.75)" width=".5" x="4" y="7.75"/></g></svg>