<svg xmlns="http://www.w3.org/2000/svg" width="24" height="24" viewBox="0 0 16 16"><path fill="#808898" d="M0 4a4 4 0 0 1 4-4h8a4 4 0 0 1 4 4v8a4 4 0 0 1-4 4H4a4 4 0 0 1-4-4z"/><g filter="url(#a)"><path stroke="#F6F6F8" stroke-linecap="round" stroke-width="1.049" d="M13.049 5.05c-2.361-.175-7.556-.263-10.494 2.885-1.042 1.116-.525 1.728.787 1.574 2.038-.238 6.074-1.912 8.92-2.623 1.311-.328 3.148.525 0 2.361-3.088 1.8-7.171 2.361-9.183 2.099"/></g><path fill="url(&quot;#b&quot;)" stroke="#33317A" stroke-linecap="round" stroke-linejoin="round" stroke-width=".214" d="M8.195 12.192a4.096 4.096 0 1 0 0-8.192 4.096 4.096 0 0 0 0 8.192"/><g filter="url(#c)"><path fill="#F6F6F8" fill-rule="evenodd" d="M8.075 7.63c1.355-.452 2.76-.922 3.967-1.23q.212.477.3 1.007c-1.174.296-2.552.757-3.925 1.215l-.753.251c-1.171.389-2.327.76-3.288.981A4.2 4.2 0 0 1 4.06 8.85c.895-.2 2.035-.562 3.274-.973q.367-.12.74-.247" clip-rule="evenodd"/></g><defs><filter id="a" width="15.05" height="9.476" x=".475" y="3.955" color-interpolation-filters="sRGB" filterUnits="userSpaceOnUse"><feFlood flood-opacity="0" result="BackgroundImageFix"/><feColorMatrix in="SourceAlpha" result="hardAlpha" values="0 0 0 0 0 0 0 0 0 0 0 0 0 0 0 0 0 0 127 0"/><feOffset dy=".5"/><feGaussianBlur stdDeviation=".5"/><feComposite in2="hardAlpha" operator="out"/><feColorMatrix values="0 0 0 0 0 0 0 0 0 0 0 0 0 0 0 0 0 0 0.3 0"/><feBlend in2="BackgroundImageFix" result="effect1_dropShadow"/><feBlend in="SourceGraphic" in2="effect1_dropShadow" result="shape"/></filter><filter id="c" width="10.282" height="5.454" x="3.21" y="5.9" color-interpolation-filters="sRGB" filterUnits="userSpaceOnUse"><feFlood flood-opacity="0" result="BackgroundImageFix"/><feColorMatrix in="SourceAlpha" result="hardAlpha" values="0 0 0 0 0 0 0 0 0 0 0 0 0 0 0 0 0 0 127 0"/><feOffset dx=".15" dy=".5"/><feGaussianBlur stdDeviation=".5"/><feColorMatrix values="0 0 0 0 0 0 0 0 0 0 0 0 0 0 0 0 0 0 0.27 0"/><feBlend in2="BackgroundImageFix" result="effect1_dropShadow"/><feBlend in="SourceGraphic" in2="effect1_dropShadow" result="shape"/></filter><radialGradient id="b" cx="0" cy="0" r="1" gradientTransform="translate(8.87 6.342)scale(3.71095)" gradientUnits="userSpaceOnUse"><stop offset=".04" stop-color="#fff"/><stop offset=".23" stop-color="#6E93E1"/><stop offset="1" stop-color="#363499"/></radialGradient></defs></svg>