<svg xmlns="http://www.w3.org/2000/svg" width="24" height="24" viewBox="0 0 16 16"><path fill="#144E81" d="M0 4a4 4 0 0 1 4-4h8a4 4 0 0 1 4 4v8a4 4 0 0 1-4 4H4a4 4 0 0 1-4-4z"/><path fill="#FFF" fill-rule="evenodd" d="M11.425 8.97A3 3 0 1 0 8 6L6.79 8.017a2.5 2.5 0 0 0-1.811.5l-1.729-1-1 1.732 1.76 1.017a2.5 2.5 0 1 0 4.977-.01L11.5 8.999zm-6.38 1.893a1.5 1.5 0 1 0 .933-1.77l.736.425a1 1 0 0 1-1 1.732zM13 6a2 2 0 1 1-4 0 2 2 0 0 1 4 0m-1 0a1 1 0 1 1-2 0 1 1 0 0 1 2 0" clip-rule="evenodd"/></svg>