<svg xmlns="http://www.w3.org/2000/svg" width="24" height="24" viewBox="0 0 16 16"><path fill="#E60012" d="M0 4a4 4 0 0 1 4-4h8a4 4 0 0 1 4 4v8a4 4 0 0 1-4 4H4a4 4 0 0 1-4-4z"/><path fill="#FFF" d="M8.896 13h1.541A2.563 2.563 0 0 0 13 10.437V5.563A2.563 2.563 0 0 0 10.437 3H8.888a.06.06 0 0 0-.063.063v9.866c0 .04.032.071.071.071M10.8 7.489c.558 0 1.014.456 1.014 1.014s-.456 1.014-1.014 1.014a1.017 1.017 0 0 1-1.014-1.014A1.02 1.02 0 0 1 10.8 7.489M4.557 6.003c0 .519.424.944.943.944a.946.946 0 0 0 .943-.944.946.946 0 0 0-.943-.943.936.936 0 0 0-.943.943M7.748 3H5.563A2.563 2.563 0 0 0 3 5.563v4.874A2.563 2.563 0 0 0 5.563 13h2.185a.07.07 0 0 0 .071-.07V3.07A.07.07 0 0 0 7.75 3zm-.73 9.198H5.562c-.472 0-.912-.18-1.242-.519a1.75 1.75 0 0 1-.52-1.242V5.563c0-.472.182-.912.52-1.242.33-.33.77-.52 1.242-.52h1.454v8.397z"/></svg>