<svg xmlns="http://www.w3.org/2000/svg" width="24" height="24" viewBox="0 0 16 16"><g clip-path="url(#a)"><path fill="#E60012" d="M16 0H0v16h16z"/><path fill="#FFF" d="M5.09 5.096H3.767a1.55 1.55 0 0 0-1.55 1.55v2.945c0 .856.694 1.55 1.55 1.55h1.321c.025 0 .045-.02.045-.045V5.14a.044.044 0 0 0-.045-.044m-.444 5.557h-.878c-.284 0-.55-.11-.752-.31a1.05 1.05 0 0 1-.31-.752V6.646a1.057 1.057 0 0 1 1.062-1.062h.878zm-.918-4.312a.568.568 0 1 1 0 1.137.568.568 0 0 1 0-1.137m2.985-1.245h-.936a.04.04 0 0 0-.039.04v5.96c0 .025.02.046.044.046h.93a1.55 1.55 0 0 0 1.55-1.55V6.647a1.55 1.55 0 0 0-1.55-1.55zm.221 3.936a.61.61 0 1 1 0-1.222.61.61 0 0 1 0 1.222M9.281 11.14v-1.038c.108-.088.513-.438.943-.807.386-.332.771-.665 1.165-.988.296-.244.86-.691.877-1.13.022-.516-.344-.85-.89-.85-.326 0-.708.181-.94.378l-.528.45-.856-.927c.726-.814 1.508-1.227 2.322-1.227 1.735-.043 3.042 1.89 1.723 3.406a13 13 0 0 1-1.582 1.462h2.266v1.272H9.28z"/></g><defs><clipPath id="a"><rect width="16" height="16" fill="#fff" rx="4"/></clipPath></defs></svg>