<svg xmlns="http://www.w3.org/2000/svg" width="24" height="24" fill="none" viewBox="0 0 16 16"><rect width="16" height="16" fill="#FF0" rx="4"/><rect width="14" height="14" x="1" y="1" fill="#000" rx="3"/><path fill="#F90" d="M2 7.634a3.636 3.636 0 0 0 3.634 3.635h4.795a3.636 3.636 0 0 0 3.635-3.635A3.636 3.636 0 0 0 10.429 4H5.634A3.636 3.636 0 0 0 2 7.634m.516-.006a3.19 3.19 0 0 1 3.189-3.19h4.642a3.19 3.19 0 0 1 0 6.379H5.705a3.19 3.19 0 0 1-3.19-3.19Z"/><path fill="#F90" d="M4.475 9.336V9.8h1.7v-.464h-.618V5.469H4.475v.464h.618v3.403zm6.495-.316v.161H7.413v-1.23c0-.157.005-.162.162-.162h3.234c.157 0 .161.005.161.162v1.068ZM7.413 7.324v-1.23c0-.157.005-.162.162-.162h3.234c.157 0 .161.005.161.162v.457h.464v-.325a.76.76 0 0 0-.757-.758h-2.97a.76.76 0 0 0-.758.758v2.815c0 .418.34.758.757.758h2.97c.419 0 .758-.34.758-.758V7.928c0-.418-.184-.603-.603-.603H7.413Z"/><path stroke="#FFFAE6" stroke-linecap="round" stroke-linejoin="round" stroke-width=".155" d="M2.516 7.653a3.19 3.19 0 0 1 3.189-3.19h4.642a3.19 3.19 0 0 1 0 6.38H5.705a3.19 3.19 0 0 1-3.19-3.19Z"/></svg>