<svg height="24" viewBox="0 0 16 16" width="24" xmlns="http://www.w3.org/2000/svg"><rect fill="#003791" height="16" rx="4" width="16"/><rect fill="#fff" height="7" rx="3.5" width="15" x=".5" y="4.5"/><rect fill="#1b1c1d" height="6" rx="3" width="14" x="1" y="5"/><g fill="#fff"><circle cx="12.5" cy="9.5" r=".5"/><circle cx="3.5" cy="9.5" r=".5"/><circle cx="13" cy="7.667" r=".333"/><circle cx="13.667" cy="7" r=".333"/><circle cx="12.333" cy="7" r=".333"/><circle cx="13" cy="6.333" r=".333"/></g><rect fill="#5e8de8" height="4" rx=".25" width="6" x="5" y="6"/><path d="m8 8c-.8.8-2.333.667-3 .5v1.25c0 .138.112.25.25.25h5.5a.25.25 0 0 0 .25-.25v-1.75c-.667-.333-2.2-.8-3 0" fill="#c2f3fe"/><rect fill="#fff" height="2" rx=".15" width=".5" x="2.75" y="6"/><rect fill="#fff" height="2" rx=".15" transform="matrix(0 1 -1 0 10.75 2.75)" width=".5" x="4" y="6.75"/></svg>