<svg xmlns="http://www.w3.org/2000/svg" width="24" height="24" viewBox="0 0 16 16"><path fill="#E1E5EC" d="M0 4a4 4 0 0 1 4-4h8a4 4 0 0 1 4 4v8a4 4 0 0 1-4 4H4a4 4 0 0 1-4-4z"/><path fill="#8B8B8B" fill-rule="evenodd" d="M12.626 5.654c0 .355.309.654.683.654.383 0 .691-.29.691-.654S13.692 5 13.308 5c-.373 0-.682.29-.682.654M7.542 9.29l1.01-3.972h1.224S8.607 9.55 8.449 10.047c-.131.383-.42.691-.86.691-.496 0-.73-.364-.841-.691-.103-.337-.86-3.131-.86-3.131s-.757 2.794-.87 3.13c-.102.328-.336.692-.84.692-.43 0-.73-.308-.85-.691C3.167 9.55 2 5.317 2 5.317h1.215L4.234 9.29s.775-2.982.897-3.412c.13-.42.383-.607.757-.607.364 0 .626.187.748.607.13.43.906 3.412.906 3.412m4.01 1.41V6.954h-1.16v3.748zm2.345 0V6.954h-1.159v3.748zm-2.944-4.392a.666.666 0 0 1-.673-.654c0-.364.3-.654.673-.654.393 0 .701.29.701.654s-.308.654-.7.654" clip-rule="evenodd"/></svg>