<svg xmlns="http://www.w3.org/2000/svg" width="24" height="24" viewBox="0 0 16 16"><path fill="#1B1C1D" d="M0 4a4 4 0 0 1 4-4h8a4 4 0 0 1 4 4v8a4 4 0 0 1-4 4H4a4 4 0 0 1-4-4z"/><path fill="#C6FF00" stroke="#67B945" stroke-linejoin="round" stroke-width=".25" d="M5.06 6.07c.52.48 1.07.93 1.45 1.22l-.08.12-.3.4-.96 1.14C4.4 9.8 3.5 10.78 2.9 11.4a.13.13 0 0 0 .13.2c.25-.08.61-.27 1.03-.52a69 69 0 0 0 3.9-2.73c.16.16.41.36.73.58a85 85 0 0 0 4.24 2.66.12.12 0 0 0 .14-.2c-.41-.3-1.12-1.07-1.83-1.91a69 69 0 0 1-1.8-2.2c.58-.36 1.65-1.26 2.87-2.71a.13.13 0 0 0-.16-.19 15.9 15.9 0 0 1-4.18 1.74 14.5 14.5 0 0 1-4.1-1.73.12.12 0 0 0-.18.17c.26.43.8.98 1.36 1.5Z"/></svg>