<svg xmlns="http://www.w3.org/2000/svg" width="24" height="24" viewBox="0 0 16 16"><path fill="#107C10" d="M0 4a4 4 0 0 1 4-4h8a4 4 0 0 1 4 4v8a4 4 0 0 1-4 4H4a4 4 0 0 1-4-4z"/><path fill="#FFF" d="m10.746 8.079.582-.797a1.6 1.6 0 0 1-.54-.234.59.59 0 0 1-.236-.522.57.57 0 0 1 .263-.509 1.3 1.3 0 0 1 .748-.179c1.026 0 1.29.536 1.47.756l.555-.756a1.6 1.6 0 0 0-.347-.398c-.374-.29-.943-.44-1.691-.44-.652 0-1.165.137-1.54.426-.36.275-.568.701-.554 1.155 0 .756.43 1.237 1.29 1.498m2.828-.042c-.264-.233-.652-.398-1.193-.536l-.596.811c.305.055.596.179.86.358.166.11.263.302.25.508a.7.7 0 0 1-.292.605c-.25.151-.554.234-.845.206-.86 0-1.262-.275-1.664-1.017l-.596.797c.11.22.263.399.444.55.415.344 1.011.509 1.774.509.72 0 1.275-.152 1.677-.454a1.47 1.47 0 0 0 .596-1.264c.056-.4-.11-.798-.415-1.073M8.5 10.704h-.25v-5.58h.25zm-6.571 0h1.22l.915-1.25-.61-.826zm5.323-5.58h-1.22l-.748 1.03.61.825zm-3.937 0h-1.22l4.117 5.58h1.22z"/></svg>