<svg xmlns="http://www.w3.org/2000/svg" width="24" height="24" viewBox="0 0 16 16"><path fill="#107C10" d="M0 4a4 4 0 0 1 4-4h8a4 4 0 0 1 4 4v8a4 4 0 0 1-4 4H4a4 4 0 0 1-4-4z"/><path fill="#FFF" d="M8 3c-1.01 0-1.845.274-2.606.735-.012 0-.013.012-.013.025 0 .012.013.012.026.012.972-.211 2.443.623 2.58.71h.026c.137-.087 1.608-.921 2.58-.71.013 0 .025 0 .025-.012s0-.025-.012-.025A4.87 4.87 0 0 0 8 3m3.344 1.404c-.247.014-.822.206-1.973 1.336l-.012.012s0 .013.012.013c1.01 1.195 2.956 4.047 2.582 5.23v.025c.012 0 .024 0 .024-.012A5 5 0 0 0 13 7.98c0-1.382-.561-2.64-1.484-3.549-.012-.012-.012-.012-.025-.012a.4.4 0 0 0-.147-.016Zm-6.693.005a.35.35 0 0 0-.155.023c-.012 0-.012.013-.025.013a5.005 5.005 0 0 0-.448 6.575c0 .012.012.012.024.012s.013-.012 0-.024c-.386-1.184 1.571-4.035 2.581-5.23l.013-.013c0-.013 0-.013-.013-.013-1.15-1.14-1.725-1.333-1.977-1.343M8 7.01s-.013 0-.013.012c-1.496 1.134-4.064 3.948-3.279 4.745A4.96 4.96 0 0 0 8 13a4.98 4.98 0 0 0 3.292-1.233c.773-.797-1.783-3.611-3.28-4.745C8.013 7.01 8 7.01 8 7.01"/></svg>